<?xml version="1.0" encoding="UTF-8" standalone="no" ?>
<!DOCTYPE svg PUBLIC "-//W3C//DTD SVG 1.1//EN" "http://www.w3.org/Graphics/SVG/1.1/DTD/svg11.dtd">
<svg xmlns="http://www.w3.org/2000/svg" xmlns:xlink="http://www.w3.org/1999/xlink" version="1.1" width="1280" height="1024" viewBox="0 0 1280 1024" xml:space="preserve">
<desc>Created with Fabric.js 5.3.0</desc>
<defs>
</defs>
<g transform="matrix(1 0 0 1 640 512)" id="background-logo"  >
<rect style="stroke: none; stroke-width: 0; stroke-dasharray: none; stroke-linecap: butt; stroke-dashoffset: 0; stroke-linejoin: miter; stroke-miterlimit: 4; fill: rgb(255,255,255); fill-rule: nonzero; opacity: 1;"  paint-order="stroke"  x="-640" y="-512" rx="0" ry="0" width="1280" height="1024" />
</g>
<g transform="matrix(1.9211538461538462 0 0 1.9211538461538462 640 374.41823890496653)" id="logo-logo"  >
<g style=""  paint-order="stroke"   >
		<g transform="matrix(0.21372689017989982 0 0 -0.21372689017989985 -107.52236509237463 -0.6598817734304703)"  >
<path style="stroke: none; stroke-width: 1; stroke-dasharray: none; stroke-linecap: butt; stroke-dashoffset: 0; stroke-linejoin: miter; stroke-miterlimit: 4; fill: rgb(0,0,0); fill-rule: nonzero; opacity: 1;"  paint-order="stroke"  transform=" translate(-161.172, -356.29650000000004)" d="M 322.344 356.297 C 322.344 369.516 311.629 380.23400000000004 298.406 380.23400000000004 L 23.9375 380.23400000000004 C 10.7148 380.234 0 369.516 0 356.297 C 0 343.078 10.7148 332.359 23.9375 332.359 L 298.406 332.359 C 311.629 332.359 322.344 343.078 322.344 356.29699999999997" stroke-linecap="round" />
</g>
		<g transform="matrix(0.21372689017989982 0 0 -0.21372689017989985 12.780226852087537 11.102259566575214)"  >
<path style="stroke: none; stroke-width: 1; stroke-dasharray: none; stroke-linecap: butt; stroke-dashoffset: 0; stroke-linejoin: miter; stroke-miterlimit: 4; fill: rgb(0,0,0); fill-rule: nonzero; opacity: 1;"  paint-order="stroke"  transform=" translate(-724.052, -301.26401183421575)" d="M 1133.3 349.809 L 1133.3 349.809 C 1136.94 342.867 1143.76 338.125 1151.55 337.25800000000004 C 1226.6 328.922 1284.6 263.297 1280.42 185.16000000000003 C 1276.5 111.738 1216 51.5781 1142.55 48.0469 C 1059.25 44.0352 990.199 110.648 990.199 193.082 C 990.199 241.898 1014.4799999999999 285.043 1051.54 311.352 L 1116.71 187.15599999999998 C 1122.6000000000001 175.91799999999998 1136.49 171.58599999999998 1147.73 177.48 L 1149.42 178.367 C 1160.66 184.262 1165 198.156 1159.1000000000001 209.398 L 1021.34 471.695 C 979.133 552.141 895.785 602.527 804.945 602.527 L 142.574 602.527 C 129.883 602.527 119.59400000000001 592.238 119.59400000000001 579.547 L 119.59400000000001 577.6410000000001 C 119.59400000000001 564.945 129.883 554.6560000000001 142.574 554.6560000000001 L 804.9449999999999 554.6560000000001 C 877.9879999999999 554.6560000000001 945.0039999999999 514.1410000000001 978.9409999999999 449.46100000000007 L 1029.1699999999998 353.9770000000001 C 977.352 319.719 942.902 261.27 942.332 194.758 C 941.461 92.7578 1022.77 5.86719 1124.62 0.296875 C 1235.97 -5.79688 1328.51 83.043 1328.51 193.082 C 1328.51 283.566 1265.95 359.71500000000003 1181.81 380.539 C 1175.84 382.02 1167 383.539 1157.29 384.62899999999996 C 1138.19 386.77 1124.37 366.83199999999994 1133.3 349.80899999999997" stroke-linecap="round" />
</g>
		<g transform="matrix(0.21372689017989982 0 0 -0.21372689017989985 -47.68803458458183 5.3810565552558955)"  >
<path style="stroke: none; stroke-width: 1; stroke-dasharray: none; stroke-linecap: butt; stroke-dashoffset: 0; stroke-linejoin: miter; stroke-miterlimit: 4; fill: rgb(0,0,0); fill-rule: nonzero; opacity: 1;"  paint-order="stroke"  transform=" translate(-441.1289602937119, -328.03174434103016)" d="M 455.098 242.48 C 456.531 256.80899999999997 445.31600000000003 268.887 431.281 268.887 L 379.922 268.887 C 406.98 312.91 456.70300000000003 341.551 512.836 338.004 C 534.977 336.605 555.84 330.031 574.277 319.547 L 488.63700000000006 201.78900000000004 C 480.85900000000004 191.10200000000003 483.22300000000007 176.12900000000005 493.91400000000004 168.35200000000003 C 504.605 160.57400000000004 519.5780000000001 162.93800000000005 527.355 173.63300000000004 L 678.648 381.66 C 699.3480000000001 410.113 696.633 452.62100000000004 665.125 477.35900000000004 C 652.23 487.48400000000004 635.93 492.29300000000006 619.531 492.29300000000006 L 289.898 492.29300000000006 C 277.20700000000005 492.29300000000006 266.918 482.0040000000001 266.918 469.31300000000005 L 266.918 467.40600000000006 C 266.918 454.71100000000007 277.207 444.4220000000001 289.898 444.4220000000001 L 622.316 444.4220000000001 C 632.6560000000001 444.4220000000001 641.508 437.3200000000001 643.664 426.9960000000001 C 644.984 420.6840000000001 643.0509999999999 414.1050000000001 639.258 408.8910000000001 L 602.383 358.1880000000001 C 573.234 375.8670000000001 539.332 386.1950000000001 503.38300000000004 386.1760000000001 C 423.934 386.129 356 337.672 326.539 268.887 L 215.621 268.887 C 203.102 268.887 191.691 259.875 190.441 247.418 C 189.008 233.09 200.223 221.012 214.258 221.012 L 429.922 221.012 C 442.44100000000003 221.012 453.85200000000003 230.02 455.098 242.48" stroke-linecap="round" />
</g>
		<g transform="matrix(0.21372689017989982 0 0 -0.21372689017989985 -33.755059333788836 46.01080463314227)"  >
<path style="stroke: none; stroke-width: 1; stroke-dasharray: none; stroke-linecap: butt; stroke-dashoffset: 0; stroke-linejoin: miter; stroke-miterlimit: 4; fill: rgb(0,0,0); fill-rule: nonzero; opacity: 1;"  paint-order="stroke"  transform=" translate(-506.3195183889772, -137.93049857037792)" d="M 642.418 266.016 L 642.418 266.016 C 637.715 259.55100000000004 636.527 251.16000000000003 639.375 243.69100000000003 C 644.578 230.03900000000004 647.785 215.47300000000004 648.527 200.32800000000003 C 652.5980000000001 116.98400000000004 585.965 47.87110000000004 503.4920000000001 47.87110000000004 C 436.6640000000001 47.87110000000004 380.3710000000001 93.29300000000003 363.55500000000006 154.85500000000005 C 361.0660000000001 163.97300000000004 353.52000000000004 171.25800000000004 344.1910000000001 172.79700000000005 C 326.7730000000001 175.67200000000005 312.5270000000001 159.87500000000006 316.83600000000007 143.62500000000006 C 338.734 61.0469 414.113 0 503.492 0 C 613.6410000000001 0 702.547 92.7188 696.2660000000001 204.199 C 695.1600000000001 223.80100000000002 690.988 242.60500000000002 684.2850000000001 260.211 C 677.4800000000001 278.098 653.672 281.492 642.4180000000001 266.016" stroke-linecap="round" />
</g>
		<g transform="matrix(0.21372689017989982 0 0 -0.21372689017989985 37.7827934201008 4.806520825452054)"  >
<path style="stroke: none; stroke-width: 1; stroke-dasharray: none; stroke-linecap: butt; stroke-dashoffset: 0; stroke-linejoin: miter; stroke-miterlimit: 4; fill: rgb(0,0,0); fill-rule: nonzero; opacity: 1;"  paint-order="stroke"  transform=" translate(-841.0357194887739, -330.71992143152295)" d="M 805.805 492.293 L 781.3979999999999 492.293 C 768.7029999999999 492.293 758.4139999999999 482.004 758.4139999999999 469.313 L 758.4139999999999 467.406 C 758.4139999999999 454.711 768.7029999999999 444.422 781.3979999999999 444.422 L 809.055 444.422 C 844.1089999999999 444.422 875.7929999999999 422.13300000000004 887.0899999999999 387.684 C 893.9799999999999 366.66400000000004 891.266 343.66 881.449 323.84000000000003 L 835.43 230.941 C 831.68 223.375 821.684 216.77 813.242 217.031 C 802.18 217.375 796.3629999999999 224.68800000000002 794.348 227.883 C 792.285 231.148 788.02 239.87900000000002 793.0039999999999 250.363 L 835.9879999999999 340.777 C 841.438 352.24199999999996 836.563 365.953 825.098 371.402 L 823.3789999999999 372.223 C 811.9139999999999 377.672 798.2029999999999 372.797 792.7539999999999 361.332 L 750.8909999999998 273.281 C 741.0469999999998 252.57 740.2029999999999 228.145 750.7459999999999 207.777 C 763.8089999999999 182.55499999999998 789.8239999999998 167.73 818.0159999999998 169.254 C 844.3439999999998 170.676 867.3789999999999 187.59799999999998 879.0819999999999 211.22299999999998 L 925.4299999999998 304.781 C 949.8869999999998 354.145 940.9689999999998 415.313 899.3049999999998 455.85900000000004 C 874.4879999999998 480.00800000000004 840.4339999999999 492.293 805.8049999999998 492.293" stroke-linecap="round" />
</g>
		<g transform="matrix(0.21372689017989982 0 0 -0.21372689017989985 43.37528318545577 -66.77277130139345)"  >
<path style="stroke: none; stroke-width: 1; stroke-dasharray: none; stroke-linecap: butt; stroke-dashoffset: 0; stroke-linejoin: miter; stroke-miterlimit: 4; fill: rgb(0,0,0); fill-rule: nonzero; opacity: 1;"  paint-order="stroke"  transform=" translate(-867.2022433204154, -665.6300119053757)" d="M 788.273 658.543 L 833.145 658.543 C 868.293 658.543 902.605 648.133 931.711 628.906 C 941.648 622.3439999999999 954.813 623.7729999999999 962.496 632.871 L 963.703 634.3009999999999 C 972.6329999999999 644.871 970.207 660.8009999999999 958.68 668.4609999999999 C 921.66 693.0819999999999 877.938 706.4179999999999 833.145 706.4179999999999 L 788.273 706.4179999999999 C 775.578 706.4179999999999 765.289 696.1289999999999 765.289 683.4339999999999 L 765.289 681.5269999999998 C 765.289 668.8359999999998 775.578 658.5429999999998 788.273 658.5429999999998" stroke-linecap="round" />
</g>
</g>
</g>
<g transform="matrix(1.9211538461538462 0 0 1.9211538461538462 640.2420653846156 624.9337714577027)" id="text-logo"  >
<g style=""  paint-order="stroke"   >
		<g transform="matrix(1 0 0 1 0 0)" id="text-logo-path-0"  >
<path style="stroke: none; stroke-width: 0; stroke-dasharray: none; stroke-linecap: butt; stroke-dashoffset: 0; stroke-linejoin: miter; stroke-miterlimit: 4; fill: rgb(0,0,0); fill-rule: nonzero; opacity: 1;"  paint-order="stroke"  transform=" translate(-204.87500000000003, 22.049999999999997)" d="M 9.13 -2.52 L 9.13 -18.9 L 20.48 -18.9 C 22.24 -18.9 23.63 -20.29 23.63 -22.05 C 23.63 -23.81 22.24 -25.2 20.48 -25.2 L 9.13 -25.2 L 9.13 -37.8 L 26.77 -37.8 C 28.54 -37.8 29.93 -39.19 29.93 -40.95 C 29.93 -42.71 28.54 -44.1 26.77 -44.1 L 6.62 -44.1 C 4.47 -44.1 2.83 -42.46 2.83 -40.32 L 2.83 -2.52 C 2.83 -0.76 4.22 0.63 5.99 0.63 C 7.75 0.63 9.13 -0.76 9.13 -2.52 Z M 41.89 -41.58 L 41.89 -12.41 C 41.89 -4.91 47.44 0.63 54.94 0.63 L 56.64 0.63 C 63.88 0.63 69.68 -5.17 69.68 -12.35 L 69.68 -41.58 C 69.68 -43.34 68.29 -44.73 66.53 -44.73 C 64.76 -44.73 63.38 -43.34 63.38 -41.58 L 63.38 -12.35 C 63.38 -8.69 60.35 -5.67 56.64 -5.67 L 54.94 -5.67 C 50.97 -5.67 48.19 -8.44 48.19 -12.41 L 48.19 -41.58 C 48.19 -43.34 46.81 -44.73 45.04 -44.73 C 43.28 -44.73 41.89 -43.34 41.89 -41.58 Z M 84.8 -37.8 L 92.04 -37.8 L 92.04 -2.52 C 92.04 -0.76 93.43 0.63 95.19 0.63 C 96.96 0.63 98.34 -0.76 98.34 -2.52 L 98.34 -37.8 L 105.59 -37.8 C 107.35 -37.8 108.74 -39.19 108.74 -40.95 C 108.74 -42.71 107.35 -44.1 105.59 -44.1 L 84.8 -44.1 C 83.03 -44.1 81.65 -42.71 81.65 -40.95 C 81.65 -39.19 83.03 -37.8 84.8 -37.8 Z M 120.71 -41.58 L 120.71 -12.41 C 120.71 -4.91 126.25 0.63 133.75 0.63 L 135.45 0.63 C 142.69 0.63 148.49 -5.17 148.49 -12.35 L 148.49 -41.58 C 148.49 -43.34 147.11 -44.73 145.34 -44.73 C 143.58 -44.73 142.19 -43.34 142.19 -41.58 L 142.19 -12.35 C 142.19 -8.69 139.17 -5.67 135.45 -5.67 L 133.75 -5.67 C 129.78 -5.67 127.01 -8.44 127.01 -12.41 L 127.01 -41.58 C 127.01 -43.34 125.62 -44.73 123.86 -44.73 C 122.09 -44.73 120.71 -43.34 120.71 -41.58 Z M 160.46 -2.52 C 160.46 -0.76 161.85 0.63 163.61 0.63 C 165.38 0.63 166.76 -0.76 166.76 -2.52 L 166.76 -18.08 L 171.61 -18.08 L 182.45 -0.82 C 182.95 0 183.96 0.63 185.09 0.63 C 186.86 0.63 188.24 -0.76 188.24 -2.52 C 188.24 -3.15 188.06 -3.72 187.74 -4.22 L 178.73 -18.59 C 184.28 -20.1 188.24 -25.14 188.24 -31.12 C 188.24 -38.3 182.45 -44.1 175.2 -44.1 L 164.24 -44.1 C 162.1 -44.1 160.46 -42.46 160.46 -40.32 Z M 166.76 -24.38 L 166.76 -37.8 L 175.2 -37.8 C 178.92 -37.8 181.94 -34.78 181.94 -31.12 C 181.94 -27.41 178.92 -24.38 175.2 -24.38 Z M 224.15 -6.3 L 206.51 -6.3 L 206.51 -18.9 L 217.85 -18.9 C 219.62 -18.9 221 -20.29 221 -22.05 C 221 -23.81 219.62 -25.2 217.85 -25.2 L 206.51 -25.2 L 206.51 -37.8 L 224.15 -37.8 C 225.92 -37.8 227.3 -39.19 227.3 -40.95 C 227.3 -42.71 225.92 -44.1 224.15 -44.1 L 203.99 -44.1 C 201.85 -44.1 200.21 -42.46 200.21 -40.32 L 200.21 -3.78 C 200.21 -1.64 201.85 0 203.99 0 L 224.15 0 C 225.92 0 227.3 -1.39 227.3 -3.15 C 227.3 -4.91 225.92 -6.3 224.15 -6.3 Z M 270.77 -2.52 L 270.77 -41.58 C 270.77 -43.34 269.39 -44.73 267.62 -44.73 C 265.86 -44.73 264.47 -43.34 264.47 -41.58 L 264.47 -2.52 C 264.47 -0.76 265.86 0.63 267.62 0.63 C 269.39 0.63 270.77 -0.76 270.77 -2.52 Z M 285.89 -37.8 L 293.14 -37.8 L 293.14 -2.52 C 293.14 -0.76 294.53 0.63 296.29 0.63 C 298.05 0.63 299.44 -0.76 299.44 -2.52 L 299.44 -37.8 L 306.68 -37.8 C 308.45 -37.8 309.83 -39.19 309.83 -40.95 C 309.83 -42.71 308.45 -44.1 306.68 -44.1 L 285.89 -44.1 C 284.13 -44.1 282.74 -42.71 282.74 -40.95 C 282.74 -39.19 284.13 -37.8 285.89 -37.8 Z M 321.8 -41.58 L 321.8 -12.41 C 321.8 -4.91 327.35 0.63 334.85 0.63 L 336.55 0.63 C 343.79 0.63 349.59 -5.17 349.59 -12.35 L 349.59 -41.58 C 349.59 -43.34 348.2 -44.73 346.44 -44.73 C 344.67 -44.73 343.29 -43.34 343.29 -41.58 L 343.29 -12.35 C 343.29 -8.69 340.26 -5.67 336.55 -5.67 L 334.85 -5.67 C 330.88 -5.67 328.1 -8.44 328.1 -12.41 L 328.1 -41.58 C 328.1 -43.34 326.72 -44.73 324.95 -44.73 C 323.19 -44.73 321.8 -43.34 321.8 -41.58 Z M 367.86 -2.52 L 367.86 -13.23 L 371.32 -17.83 L 382.91 -0.76 C 383.48 0.13 384.43 0.63 385.5 0.63 C 387.26 0.63 388.65 -0.76 388.65 -2.52 C 388.65 -3.15 388.46 -3.72 388.08 -4.28 L 375.42 -22.93 L 375.35 -23.06 L 388.02 -39.69 C 388.4 -40.19 388.65 -40.89 388.65 -41.58 C 388.65 -43.34 387.26 -44.73 385.5 -44.73 C 384.49 -44.73 383.61 -44.29 382.98 -43.47 L 367.86 -23.63 L 367.86 -41.58 C 367.86 -43.34 366.47 -44.73 364.71 -44.73 C 362.94 -44.73 361.56 -43.34 361.56 -41.58 L 361.56 -2.52 C 361.56 -0.76 362.94 0.63 364.71 0.63 C 366.47 0.63 367.86 -0.76 367.86 -2.52 Z M 406.92 -2.52 L 406.92 -41.58 C 406.92 -43.34 405.53 -44.73 403.77 -44.73 C 402 -44.73 400.62 -43.34 400.62 -41.58 L 400.62 -2.52 C 400.62 -0.76 402 0.63 403.77 0.63 C 405.53 0.63 406.92 -0.76 406.92 -2.52 Z" stroke-linecap="round" />
</g>
</g>
</g>
<g transform="matrix(1.9211538461538462 0 0 1.9211538461538462 640.6382296817125 743.4026455346259)" id="tagline-cc21e1d1-2d7c-4c05-9e9a-2f9b79aa2aa3-logo"  >
<g style=""  paint-order="stroke"   >
		<g transform="matrix(1 0 0 1 0 0)" id="tagline-cc21e1d1-2d7c-4c05-9e9a-2f9b79aa2aa3-logo-path-0"  >
<path style="stroke: none; stroke-width: 0; stroke-dasharray: none; stroke-linecap: butt; stroke-dashoffset: 0; stroke-linejoin: miter; stroke-miterlimit: 4; fill: rgb(0,0,0); fill-rule: nonzero; opacity: 1;"  paint-order="stroke"  transform=" translate(-159.70000000000002, 15.75)" d="M 2.02 -8.87 C 2.02 -3.51 5.98 0.45 11.34 0.45 L 12.55 0.45 C 17.73 0.45 21.87 -3.69 21.87 -8.82 C 21.87 -13.46 17.82 -15.57 12.87 -17.86 C 9.18 -19.66 6.52 -21.11 6.52 -23.54 C 6.52 -25.47 8.5 -27.45 11.34 -27.45 L 12.55 -27.45 C 15.21 -27.45 17.37 -25.29 17.37 -22.68 C 17.37 -21.42 18.36 -20.43 19.62 -20.43 C 20.88 -20.43 21.87 -21.42 21.87 -22.68 C 21.87 -27.81 17.73 -31.95 12.55 -31.95 L 11.34 -31.95 C 5.98 -31.95 2.02 -27.99 2.02 -23.54 C 2.02 -18.13 7.06 -15.71 10.98 -13.81 C 14.8 -12.01 17.37 -10.75 17.37 -8.82 C 17.37 -6.21 15.21 -4.05 12.55 -4.05 L 11.34 -4.05 C 8.5 -4.05 6.52 -6.03 6.52 -8.87 C 6.52 -10.13 5.54 -11.12 4.27 -11.12 C 3.01 -11.12 2.02 -10.13 2.02 -8.87 Z M 42.79 -1.8 L 42.79 -29.7 C 42.79 -30.96 41.8 -31.95 40.54 -31.95 C 39.28 -31.95 38.29 -30.96 38.29 -29.7 L 38.29 -1.8 C 38.29 -0.54 39.28 0.45 40.54 0.45 C 41.8 0.45 42.79 -0.54 42.79 -1.8 Z M 63.72 -2.25 L 63.72 -20.52 L 74.29 -1.17 C 74.7 -0.45 75.42 0 76.27 0 L 76.32 0 C 77.58 0 78.57 -0.99 78.57 -2.25 L 78.57 -29.25 C 78.57 -30.51 77.58 -31.5 76.32 -31.5 C 75.06 -31.5 74.07 -30.51 74.07 -29.25 L 74.07 -10.98 L 63.49 -30.33 C 63.09 -31.05 62.37 -31.5 61.51 -31.5 L 61.47 -31.5 C 60.21 -31.5 59.22 -30.51 59.22 -29.25 L 59.22 -2.25 C 59.22 -0.99 60.21 0 61.47 0 C 62.73 0 63.72 -0.99 63.72 -2.25 Z M 114.84 -22.68 C 114.84 -27.81 110.7 -31.95 105.53 -31.95 L 104.31 -31.95 C 98.95 -31.95 95 -27.99 95 -22.63 L 95 -8.87 C 95 -3.51 98.95 0.45 104.31 0.45 L 105.53 0.45 C 110.7 0.45 114.84 -3.69 114.84 -8.82 C 114.84 -10.08 113.85 -11.07 112.59 -11.07 C 111.33 -11.07 110.34 -10.08 110.34 -8.82 C 110.34 -6.21 108.18 -4.05 105.53 -4.05 L 104.31 -4.05 C 101.47 -4.05 99.5 -6.03 99.5 -8.87 L 99.5 -22.63 C 99.5 -25.47 101.47 -27.45 104.31 -27.45 L 105.53 -27.45 C 108.18 -27.45 110.34 -25.29 110.34 -22.68 C 110.34 -21.42 111.33 -20.43 112.59 -20.43 C 113.85 -20.43 114.84 -21.42 114.84 -22.68 Z M 148.37 -4.5 L 135.77 -4.5 L 135.77 -13.5 L 143.87 -13.5 C 145.13 -13.5 146.12 -14.49 146.12 -15.75 C 146.12 -17.01 145.13 -18 143.87 -18 L 135.77 -18 L 135.77 -27 L 148.37 -27 C 149.63 -27 150.62 -27.99 150.62 -29.25 C 150.62 -30.51 149.63 -31.5 148.37 -31.5 L 133.97 -31.5 C 132.44 -31.5 131.27 -30.33 131.27 -28.8 L 131.27 -2.7 C 131.27 -1.17 132.44 0 133.97 0 L 148.37 0 C 149.63 0 150.62 -0.99 150.62 -2.25 C 150.62 -3.51 149.63 -4.5 148.37 -4.5 Z M 194.76 0 L 210.11 0 C 211.37 0 212.36 -0.99 212.36 -2.25 C 212.36 -3.51 211.37 -4.5 210.11 -4.5 L 197.06 -4.5 C 197.91 -7.47 200.39 -9.31 203.49 -11.38 C 207.36 -13.99 212.36 -16.88 212.36 -22.63 C 212.36 -27.99 208.4 -31.95 203.04 -31.95 L 201.83 -31.95 C 196.65 -31.95 192.51 -27.81 192.51 -22.68 C 192.51 -21.42 193.5 -20.43 194.76 -20.43 C 196.02 -20.43 197.01 -21.42 197.01 -22.68 C 197.01 -25.29 199.17 -27.45 201.83 -27.45 L 203.04 -27.45 C 205.88 -27.45 207.86 -25.47 207.86 -22.63 C 207.86 -19.53 204.89 -17.77 200.97 -15.16 C 197.01 -12.46 192.24 -9 192.24 -2.25 C 192.24 -0.99 193.23 0 194.49 0 L 194.63 0 Z M 247.28 -8.82 L 247.28 -22.68 C 247.28 -27.81 243.14 -31.95 237.96 -31.95 L 236.75 -31.95 C 231.39 -31.95 227.43 -27.99 227.43 -22.63 L 227.43 -8.87 C 227.43 -3.51 231.39 0.45 236.75 0.45 L 237.96 0.45 C 243.14 0.45 247.28 -3.69 247.28 -8.82 Z M 242.78 -22.68 L 242.78 -8.82 C 242.78 -6.21 240.62 -4.05 237.96 -4.05 L 236.75 -4.05 C 233.91 -4.05 231.93 -6.03 231.93 -8.87 L 231.93 -22.63 C 231.93 -25.47 233.91 -27.45 236.75 -27.45 L 237.96 -27.45 C 240.62 -27.45 242.78 -25.29 242.78 -22.68 Z M 264.87 0 L 280.21 0 C 281.48 0 282.46 -0.99 282.46 -2.25 C 282.46 -3.51 281.48 -4.5 280.21 -4.5 L 267.17 -4.5 C 268.02 -7.47 270.5 -9.31 273.6 -11.38 C 277.47 -13.99 282.46 -16.88 282.46 -22.63 C 282.46 -27.99 278.5 -31.95 273.15 -31.95 L 271.94 -31.95 C 266.76 -31.95 262.62 -27.81 262.62 -22.68 C 262.62 -21.42 263.61 -20.43 264.87 -20.43 C 266.13 -20.43 267.12 -21.42 267.12 -22.68 C 267.12 -25.29 269.28 -27.45 271.94 -27.45 L 273.15 -27.45 C 275.99 -27.45 277.96 -25.47 277.96 -22.63 C 277.96 -19.53 275 -17.77 271.08 -15.16 C 267.12 -12.46 262.35 -9 262.35 -2.25 C 262.35 -0.99 263.34 0 264.6 0 L 264.74 0 Z M 297.54 -10.39 L 297.54 -8.87 C 297.54 -3.51 301.5 0.45 306.86 0.45 L 308.07 0.45 C 313.25 0.45 317.38 -3.69 317.38 -8.82 L 317.38 -10.44 C 317.38 -15.57 313.25 -19.71 308.07 -19.71 L 302.94 -19.71 L 302.94 -27 L 313.74 -27 C 315 -27 315.99 -27.99 315.99 -29.25 C 315.99 -30.51 315 -31.5 313.74 -31.5 L 301.14 -31.5 C 299.61 -31.5 298.44 -30.33 298.44 -28.8 L 298.44 -17.91 C 298.44 -16.38 299.61 -15.21 301.14 -15.21 L 308.07 -15.21 C 310.73 -15.21 312.88 -13.05 312.88 -10.44 L 312.88 -8.82 C 312.88 -6.21 310.73 -4.05 308.07 -4.05 L 306.86 -4.05 C 304.02 -4.05 302.04 -6.03 302.04 -8.87 L 302.04 -10.39 C 302.04 -11.65 301.05 -12.64 299.79 -12.64 C 298.53 -12.64 297.54 -11.65 297.54 -10.39 Z" stroke-linecap="round" />
</g>
</g>
</g>
</svg>